<mxfile host="app.diagrams.net" modified="2022-11-07T15:13:42.877Z" agent="5.0 (Windows NT 10.0; Win64; x64) AppleWebKit/537.36 (KHTML, like Gecko) Chrome/107.0.0.0 Safari/537.36" etag="AWnXwP8iv4Pt1kuz2QAC" version="20.5.1" type="github">
  <diagram id="8-LpsrX2_TfJ6M6-1mHZ" name="Use case">
    <mxGraphModel dx="1038" dy="571" grid="1" gridSize="10" guides="1" tooltips="1" connect="1" arrows="1" fold="1" page="1" pageScale="1" pageWidth="850" pageHeight="1100" background="#F4F1DE" math="0" shadow="0">
      <root>
        <mxCell id="0" />
        <mxCell id="1" parent="0" />
        <mxCell id="37e4m3Va_3_EYu8CvwDs-2" value="" style="whiteSpace=wrap;html=1;aspect=fixed;rounded=1;fillColor=#F2CC8F;strokeColor=#E07A5F;fontColor=#393C56;" vertex="1" parent="1">
          <mxGeometry x="210" y="40" width="400" height="400" as="geometry" />
        </mxCell>
        <mxCell id="37e4m3Va_3_EYu8CvwDs-8" style="edgeStyle=orthogonalEdgeStyle;rounded=1;orthogonalLoop=1;jettySize=auto;html=1;entryX=0;entryY=0.5;entryDx=0;entryDy=0;labelBackgroundColor=#F4F1DE;strokeColor=#E07A5F;fontColor=#393C56;" edge="1" parent="1" source="xbq6zCt9JAOj2lPIDJMv-6" target="xbq6zCt9JAOj2lPIDJMv-7">
          <mxGeometry relative="1" as="geometry" />
        </mxCell>
        <mxCell id="37e4m3Va_3_EYu8CvwDs-11" style="edgeStyle=orthogonalEdgeStyle;rounded=1;orthogonalLoop=1;jettySize=auto;html=1;entryX=0;entryY=0.5;entryDx=0;entryDy=0;labelBackgroundColor=#F4F1DE;strokeColor=#E07A5F;fontColor=#393C56;" edge="1" parent="1" source="xbq6zCt9JAOj2lPIDJMv-6" target="xbq6zCt9JAOj2lPIDJMv-8">
          <mxGeometry relative="1" as="geometry" />
        </mxCell>
        <mxCell id="37e4m3Va_3_EYu8CvwDs-12" style="edgeStyle=orthogonalEdgeStyle;rounded=1;orthogonalLoop=1;jettySize=auto;html=1;entryX=0;entryY=0.5;entryDx=0;entryDy=0;labelBackgroundColor=#F4F1DE;strokeColor=#E07A5F;fontColor=#393C56;" edge="1" parent="1" source="xbq6zCt9JAOj2lPIDJMv-6" target="37e4m3Va_3_EYu8CvwDs-1">
          <mxGeometry relative="1" as="geometry" />
        </mxCell>
        <mxCell id="37e4m3Va_3_EYu8CvwDs-13" style="edgeStyle=orthogonalEdgeStyle;rounded=1;orthogonalLoop=1;jettySize=auto;html=1;entryX=0;entryY=0.5;entryDx=0;entryDy=0;labelBackgroundColor=#F4F1DE;strokeColor=#E07A5F;fontColor=#393C56;" edge="1" parent="1" source="xbq6zCt9JAOj2lPIDJMv-6" target="xbq6zCt9JAOj2lPIDJMv-10">
          <mxGeometry relative="1" as="geometry" />
        </mxCell>
        <mxCell id="xbq6zCt9JAOj2lPIDJMv-6" value="User" style="shape=umlActor;verticalLabelPosition=bottom;verticalAlign=top;html=1;rounded=1;strokeColor=#E07A5F;fontColor=#393C56;fillColor=#F2CC8F;" parent="1" vertex="1">
          <mxGeometry x="90" y="170" width="30" height="60" as="geometry" />
        </mxCell>
        <mxCell id="xbq6zCt9JAOj2lPIDJMv-7" value="Play music" style="ellipse;whiteSpace=wrap;html=1;rounded=1;strokeColor=#E07A5F;fontColor=#393C56;fillColor=#F2CC8F;" parent="1" vertex="1">
          <mxGeometry x="270" y="40" width="120" height="80" as="geometry" />
        </mxCell>
        <mxCell id="xbq6zCt9JAOj2lPIDJMv-8" value="Create playlists" style="ellipse;whiteSpace=wrap;html=1;rounded=1;strokeColor=#E07A5F;fontColor=#393C56;fillColor=#F2CC8F;" parent="1" vertex="1">
          <mxGeometry x="270" y="140" width="120" height="80" as="geometry" />
        </mxCell>
        <mxCell id="xbq6zCt9JAOj2lPIDJMv-10" value="Search" style="ellipse;whiteSpace=wrap;html=1;rounded=1;strokeColor=#E07A5F;fontColor=#393C56;fillColor=#F2CC8F;" parent="1" vertex="1">
          <mxGeometry x="270" y="350" width="120" height="80" as="geometry" />
        </mxCell>
        <mxCell id="37e4m3Va_3_EYu8CvwDs-1" value="Edit playlist" style="ellipse;whiteSpace=wrap;html=1;rounded=1;strokeColor=#E07A5F;fontColor=#393C56;fillColor=#F2CC8F;" vertex="1" parent="1">
          <mxGeometry x="270" y="250" width="120" height="80" as="geometry" />
        </mxCell>
        <mxCell id="37e4m3Va_3_EYu8CvwDs-6" style="edgeStyle=orthogonalEdgeStyle;rounded=1;orthogonalLoop=1;jettySize=auto;html=1;entryX=1;entryY=0.5;entryDx=0;entryDy=0;labelBackgroundColor=#F4F1DE;strokeColor=#E07A5F;fontColor=#393C56;" edge="1" parent="1" source="37e4m3Va_3_EYu8CvwDs-3" target="37e4m3Va_3_EYu8CvwDs-4">
          <mxGeometry relative="1" as="geometry" />
        </mxCell>
        <mxCell id="37e4m3Va_3_EYu8CvwDs-7" style="edgeStyle=orthogonalEdgeStyle;rounded=1;orthogonalLoop=1;jettySize=auto;html=1;entryX=1;entryY=0.5;entryDx=0;entryDy=0;labelBackgroundColor=#F4F1DE;strokeColor=#E07A5F;fontColor=#393C56;" edge="1" parent="1" source="37e4m3Va_3_EYu8CvwDs-3" target="37e4m3Va_3_EYu8CvwDs-5">
          <mxGeometry relative="1" as="geometry" />
        </mxCell>
        <mxCell id="37e4m3Va_3_EYu8CvwDs-3" value="Admin" style="shape=umlActor;verticalLabelPosition=bottom;verticalAlign=top;html=1;outlineConnect=0;rounded=1;fillColor=#F2CC8F;strokeColor=#E07A5F;fontColor=#393C56;" vertex="1" parent="1">
          <mxGeometry x="660" y="170" width="30" height="60" as="geometry" />
        </mxCell>
        <mxCell id="37e4m3Va_3_EYu8CvwDs-4" value="Download music" style="ellipse;whiteSpace=wrap;html=1;rounded=1;fillColor=#F2CC8F;strokeColor=#E07A5F;fontColor=#393C56;" vertex="1" parent="1">
          <mxGeometry x="460" y="60" width="120" height="80" as="geometry" />
        </mxCell>
        <mxCell id="37e4m3Va_3_EYu8CvwDs-5" value="Delete music" style="ellipse;whiteSpace=wrap;html=1;rounded=1;fillColor=#F2CC8F;strokeColor=#E07A5F;fontColor=#393C56;" vertex="1" parent="1">
          <mxGeometry x="460" y="190" width="120" height="80" as="geometry" />
        </mxCell>
      </root>
    </mxGraphModel>
  </diagram>
</mxfile>
